<svg width="28" height="24" viewBox="0 0 28 24" fill="none" xmlns="http://www.w3.org/2000/svg">
<path d="M20.1439 24L19.741 22C19.4724 21.8889 19.2206 21.7722 18.9856 21.65C18.7506 21.5278 18.51 21.3778 18.2638 21.2L16.3165 21.8L14.9736 19.5333L16.518 18.2C16.4732 17.9333 16.4508 17.6444 16.4508 17.3333C16.4508 17.0222 16.4732 16.7333 16.518 16.4667L14.9736 15.1333L16.3165 12.8667L18.2638 13.4667C18.51 13.2889 18.7506 13.1389 18.9856 13.0167C19.2206 12.8944 19.4724 12.7778 19.741 12.6667L20.1439 10.6667H22.8297L23.2326 12.6667C23.5012 12.7778 23.753 12.8944 23.988 13.0167C24.223 13.1389 24.4636 13.2889 24.7098 13.4667L26.6571 12.8667L28 15.1333L26.4556 16.4667C26.5004 16.7333 26.5228 17.0222 26.5228 17.3333C26.5228 17.6444 26.5004 17.9333 26.4556 18.2L28 19.5333L26.6571 21.8L24.7098 21.2C24.4636 21.3778 24.223 21.5278 23.988 21.65C23.753 21.7722 23.5012 21.8889 23.2326 22L22.8297 24H20.1439ZM21.4868 20C22.2254 20 22.8577 19.7389 23.3837 19.2167C23.9097 18.6944 24.1727 18.0667 24.1727 17.3333C24.1727 16.6 23.9097 15.9722 23.3837 15.45C22.8577 14.9278 22.2254 14.6667 21.4868 14.6667C20.7482 14.6667 20.1159 14.9278 19.5899 15.45C19.0639 15.9722 18.801 16.6 18.801 17.3333C18.801 18.0667 19.0639 18.6944 19.5899 19.2167C20.1159 19.7389 20.7482 20 21.4868 20ZM2.68585 18.6667V2.66667V8.4V8V18.6667ZM2.68585 21.3333C1.94724 21.3333 1.31495 21.0722 0.788969 20.55C0.26299 20.0278 0 19.4 0 18.6667V2.66667C0 1.93333 0.26299 1.30556 0.788969 0.783333C1.31495 0.261111 1.94724 0 2.68585 0H10.7434L13.4293 2.66667H24.1727C24.9113 2.66667 25.5436 2.92778 26.0695 3.45C26.5955 3.97222 26.8585 4.6 26.8585 5.33333V9.7C26.4556 9.41111 26.0304 9.16111 25.5827 8.95C25.1351 8.73889 24.6651 8.55556 24.1727 8.4V5.33333H12.3213L9.63549 2.66667H2.68585V18.6667H12.1871C12.2542 19.1333 12.3605 19.5889 12.506 20.0333C12.6515 20.4778 12.8249 20.9111 13.0264 21.3333H2.68585Z" fill="#898A8D"/>
</svg>
