<svg width="72" height="72" viewBox="0 0 72 72" fill="none" xmlns="http://www.w3.org/2000/svg">
<rect width="72" height="72" rx="17" fill="#529AE5"/>
<path d="M59 59L49.8 49.8H26.8C25.535 49.8 24.4521 49.3496 23.5513 48.4488C22.6504 47.5479 22.2 46.465 22.2 45.2V42.9H47.5C48.765 42.9 49.8479 42.4496 50.7488 41.5488C51.6496 40.6479 52.1 39.565 52.1 38.3V22.2H54.4C55.665 22.2 56.7479 22.6504 57.6488 23.5513C58.5496 24.4521 59 25.535 59 26.8V59ZM17.6 36.4025L20.3025 33.7H42.9V17.6H17.6V36.4025ZM13 47.5V17.6C13 16.335 13.4504 15.2521 14.3513 14.3513C15.2521 13.4504 16.335 13 17.6 13H42.9C44.165 13 45.2479 13.4504 46.1488 14.3513C47.0496 15.2521 47.5 16.335 47.5 17.6V33.7C47.5 34.965 47.0496 36.0479 46.1488 36.9488C45.2479 37.8496 44.165 38.3 42.9 38.3H22.2L13 47.5Z" fill="#F4F4F8"/>
</svg>
